<svg xmlns="http://www.w3.org/2000/svg" viewBox="0 0 920 620" role="img" aria-labelledby="title">
<title id="title">PC Gaming NEXUS</title>
<defs>
  <radialGradient id="halo">
    <stop offset="0" stop-color="#7C5CFC" stop-opacity=".42"/>
    <stop offset=".5" stop-color="#7C5CFC" stop-opacity=".12"/>
    <stop offset="1" stop-color="#7C5CFC" stop-opacity="0"/>
  </radialGradient>
  <linearGradient id="glass" x1="0" y1="0" x2="1" y2="1">
    <stop offset="0" stop-color="#1C2332"/>
    <stop offset=".55" stop-color="#101620"/>
    <stop offset="1" stop-color="#080B12"/>
  </linearGradient>
  <linearGradient id="violet" x1="0" y1="0" x2="1" y2="1">
    <stop offset="0" stop-color="#A78BFA"/>
    <stop offset=".5" stop-color="#7C5CFC"/>
    <stop offset="1" stop-color="#5B32E6"/>
  </linearGradient>
</defs>

<ellipse cx="525" cy="330" rx="350" ry="255" fill="url(#halo)"/>

<g opacity=".42" stroke="#9CA6B7" fill="none">
  <path d="M120 490C300 300 505 205 820 240" stroke-width="2"/>
  <path d="M168 535C365 336 548 280 852 315" stroke-width="1.5"/>
  <path d="M278 96v42M720 72v55M798 440v54" stroke="#7C5CFC"/>
</g>

<g transform="translate(330 72)">
  <rect x="0" y="0" width="330" height="455" rx="28" fill="#0B0F17" stroke="#293247" stroke-width="4"/>
  <rect x="22" y="24" width="256" height="405" rx="18" fill="url(#glass)" stroke="#333C50" stroke-width="3"/>
  <path d="M285 34h28v380h-28z" fill="#111722"/>

  <g transform="translate(62 62)">
    <circle cx="75" cy="75" r="64" fill="#111722" stroke="#323D52" stroke-width="10"/>
    <circle cx="75" cy="75" r="44" fill="none" stroke="url(#violet)" stroke-width="10"/>
    <circle cx="75" cy="75" r="12" fill="#7C5CFC"/>
    <path d="M75 25c18 7 31 19 39 37M119 75c-7 18-19 31-37 39M75 119c-18-7-31-19-39-37M31 75c7-18 19-31 37-39" stroke="#A78BFA" stroke-width="5" stroke-linecap="round"/>
  </g>

  <g transform="translate(62 218)">
    <circle cx="75" cy="75" r="64" fill="#111722" stroke="#323D52" stroke-width="10"/>
    <circle cx="75" cy="75" r="44" fill="none" stroke="url(#violet)" stroke-width="10"/>
    <circle cx="75" cy="75" r="12" fill="#7C5CFC"/>
    <path d="M75 25c18 7 31 19 39 37M119 75c-7 18-19 31-37 39M75 119c-18-7-31-19-39-37M31 75c7-18 19-31 37-39" stroke="#A78BFA" stroke-width="5" stroke-linecap="round"/>
  </g>

  <rect x="194" y="90" width="48" height="255" rx="8" fill="#131A28" stroke="#2D3750"/>
  <rect x="204" y="106" width="28" height="116" rx="5" fill="#20283A"/>
  <rect x="204" y="238" width="28" height="90" rx="5" fill="#20283A"/>
  <path d="M310 110h11M310 135h11M310 160h11M310 185h11M310 210h11M310 235h11M310 260h11M310 285h11" stroke="#7C5CFC" stroke-width="5" stroke-linecap="round"/>
</g>

<ellipse cx="495" cy="548" rx="230" ry="34" fill="#7C5CFC" opacity=".15"/>
<path d="M285 548h430" stroke="#7C5CFC" stroke-width="3" opacity=".55"/>
</svg>